<svg xmlns="http://www.w3.org/2000/svg" viewBox="0 0 960 900" role="img" aria-labelledby="title desc">
  <title id="title">Operations roadmap illustration</title>
  <desc id="desc">A project roadmap with timelines, owners, risks, and operational controls.</desc>
  <defs>
    <linearGradient id="bg" x1="0" y1="0" x2="1" y2="1">
      <stop offset="0" stop-color="#173348"/>
      <stop offset="1" stop-color="#0e2434"/>
    </linearGradient>
    <filter id="shadow" x="-20%" y="-20%" width="140%" height="150%">
      <feDropShadow dx="0" dy="24" stdDeviation="22" flood-color="#06131d" flood-opacity=".35"/>
    </filter>
  </defs>
  <rect width="960" height="900" fill="url(#bg)"/>
  <g opacity=".18">
    <path d="M90 170h780M90 340h780M90 510h780M90 680h780" stroke="#ffffff" stroke-width="4"/>
    <path d="M220 90v720M420 90v720M620 90v720M820 90v720" stroke="#ffffff" stroke-width="4"/>
  </g>
  <g filter="url(#shadow)">
    <rect x="122" y="124" width="716" height="146" rx="18" fill="#fffdf9"/>
    <circle cx="182" cy="198" r="28" fill="#f26f3f"/>
    <path d="M238 176h208M238 218h346" stroke="#173348" stroke-width="18" stroke-linecap="round"/>
    <rect x="650" y="168" width="128" height="62" rx="31" fill="#e8f1eb"/>
  </g>
  <g filter="url(#shadow)">
    <rect x="190" y="340" width="240" height="190" rx="18" fill="#fffdf9"/>
    <path d="M226 386h126M226 430h166M226 474h104" stroke="#173348" stroke-width="16" stroke-linecap="round"/>
    <rect x="226" y="492" width="72" height="22" rx="11" fill="#f26f3f"/>
  </g>
  <g filter="url(#shadow)">
    <rect x="530" y="330" width="240" height="208" rx="18" fill="#fffdf9"/>
    <path d="M566 376h132M566 420h156M566 464h96" stroke="#173348" stroke-width="16" stroke-linecap="round"/>
    <circle cx="714" cy="486" r="28" fill="#f3be6f"/>
  </g>
  <g filter="url(#shadow)">
    <rect x="124" y="642" width="714" height="130" rx="18" fill="#fffdf9"/>
    <path d="M182 704h180M414 704h136M604 704h148" stroke="#173348" stroke-width="18" stroke-linecap="round"/>
    <circle cx="376" cy="704" r="20" fill="#5f7f6f"/>
    <circle cx="570" cy="704" r="20" fill="#f26f3f"/>
  </g>
  <path d="M186 198c164 180 278 288 432 288 88 0 128 68 148 218" fill="none" stroke="#f26f3f" stroke-width="10" stroke-linecap="round" stroke-dasharray="20 24" opacity=".76"/>
</svg>
