<svg xmlns="http://www.w3.org/2000/svg" viewBox="0 0 960 900" role="img" aria-labelledby="title desc">
  <title id="title">Performance dashboard illustration</title>
  <desc id="desc">A laptop dashboard with project metrics, milestones, charts, and sticky notes.</desc>
  <defs>
    <linearGradient id="bg" x1="0" y1="0" x2="1" y2="1">
      <stop offset="0" stop-color="#fff0e8"/>
      <stop offset=".7" stop-color="#f3c7b4"/>
      <stop offset="1" stop-color="#d98b6b"/>
    </linearGradient>
    <filter id="shadow" x="-20%" y="-20%" width="140%" height="150%">
      <feDropShadow dx="0" dy="22" stdDeviation="22" flood-color="#4c3127" flood-opacity=".2"/>
    </filter>
  </defs>
  <rect width="960" height="900" fill="url(#bg)"/>
  <g opacity=".5">
    <rect x="86" y="88" width="210" height="142" rx="16" fill="#fff8f3"/>
    <rect x="664" y="104" width="178" height="116" rx="16" fill="#fff8f3"/>
    <rect x="728" y="600" width="112" height="112" rx="16" fill="#f7d78f"/>
  </g>
  <g filter="url(#shadow)">
    <rect x="132" y="312" width="680" height="396" rx="28" fill="#243f52"/>
    <rect x="174" y="354" width="596" height="300" rx="16" fill="#fffdf9"/>
    <rect x="214" y="396" width="150" height="18" rx="9" fill="#173348"/>
    <rect x="214" y="450" width="72" height="146" rx="8" fill="#f26f3f"/>
    <rect x="320" y="486" width="72" height="110" rx="8" fill="#f3be6f"/>
    <rect x="426" y="420" width="72" height="176" rx="8" fill="#5f7f6f"/>
    <path d="M550 560c48-98 104-122 166-72" fill="none" stroke="#f26f3f" stroke-width="16" stroke-linecap="round"/>
    <path d="M550 608h168" stroke="#d9e3de" stroke-width="14" stroke-linecap="round"/>
  </g>
  <g filter="url(#shadow)">
    <rect x="156" y="178" width="196" height="128" rx="18" fill="#fffdf9"/>
    <path d="M190 220h98M190 258h132" stroke="#173348" stroke-width="14" stroke-linecap="round"/>
    <circle cx="316" cy="226" r="18" fill="#f26f3f"/>
  </g>
  <g filter="url(#shadow)">
    <rect x="610" y="220" width="184" height="132" rx="18" fill="#fffdf9"/>
    <path d="M642 266h86M642 304h114" stroke="#173348" stroke-width="14" stroke-linecap="round"/>
    <circle cx="756" cy="270" r="18" fill="#5f7f6f"/>
  </g>
  <path d="M74 766h812" stroke="#b96b4d" stroke-width="36" stroke-linecap="round" opacity=".35"/>
</svg>
