<svg xmlns="http://www.w3.org/2000/svg" viewBox="0 0 1600 950" role="img" aria-labelledby="title desc">
  <title id="title">Project command center illustration</title>
  <desc id="desc">A warm project workspace with dashboards, milestones, notes, and planning boards.</desc>
  <defs>
    <linearGradient id="wall" x1="0" y1="0" x2="1" y2="1">
      <stop offset="0" stop-color="#fff6ef"/>
      <stop offset=".55" stop-color="#fbe8db"/>
      <stop offset="1" stop-color="#e7f0eb"/>
    </linearGradient>
    <linearGradient id="desk" x1="0" y1="0" x2="1" y2="0">
      <stop offset="0" stop-color="#f29d72"/>
      <stop offset="1" stop-color="#c9734e"/>
    </linearGradient>
    <filter id="shadow" x="-20%" y="-20%" width="140%" height="150%">
      <feDropShadow dx="0" dy="24" stdDeviation="28" flood-color="#3b332f" flood-opacity=".18"/>
    </filter>
  </defs>
  <rect width="1600" height="950" fill="url(#wall)"/>
  <path d="M0 782h1600v168H0z" fill="#fffaf6"/>
  <path d="M0 802c210-58 426-56 646 8s436 75 648 8c118-37 220-47 306-31v163H0z" fill="#f6d1c1" opacity=".7"/>
  <g opacity=".55">
    <path d="M248 74v566M520 74v566M792 74v566M1064 74v566M1336 74v566" stroke="#fff" stroke-width="8"/>
    <path d="M122 166h1348M122 344h1348M122 522h1348" stroke="#fff" stroke-width="8"/>
  </g>
  <g filter="url(#shadow)">
    <rect x="955" y="188" width="405" height="280" rx="18" fill="#ffffff"/>
    <rect x="989" y="222" width="337" height="42" rx="8" fill="#173348"/>
    <rect x="989" y="296" width="80" height="112" rx="8" fill="#ffd6c4"/>
    <rect x="1093" y="260" width="80" height="148" rx="8" fill="#88a796"/>
    <rect x="1197" y="330" width="80" height="78" rx="8" fill="#f26f3f"/>
    <path d="M1000 433h318" stroke="#e2ded8" stroke-width="10" stroke-linecap="round"/>
  </g>
  <g filter="url(#shadow)">
    <rect x="660" y="132" width="220" height="320" rx="20" fill="#ffffff"/>
    <rect x="690" y="164" width="120" height="16" rx="8" fill="#173348"/>
    <rect x="690" y="214" width="150" height="18" rx="9" fill="#ffd6c4"/>
    <rect x="690" y="258" width="102" height="18" rx="9" fill="#e8f1eb"/>
    <rect x="690" y="302" width="148" height="18" rx="9" fill="#e6eef3"/>
    <rect x="690" y="346" width="112" height="18" rx="9" fill="#ffd6c4"/>
    <circle cx="842" cy="420" r="16" fill="#f26f3f"/>
  </g>
  <g filter="url(#shadow)">
    <rect x="720" y="524" width="560" height="272" rx="24" fill="#243f52"/>
    <rect x="756" y="560" width="210" height="22" rx="11" fill="#ffffff" opacity=".92"/>
    <rect x="756" y="622" width="120" height="96" rx="10" fill="#f26f3f"/>
    <rect x="908" y="654" width="120" height="64" rx="10" fill="#f3be6f"/>
    <rect x="1060" y="598" width="120" height="120" rx="10" fill="#88a796"/>
    <path d="M756 748h478" stroke="#ffffff" stroke-width="12" opacity=".35" stroke-linecap="round"/>
  </g>
  <g filter="url(#shadow)">
    <path d="M430 470h220c42 0 76 34 76 76v250H354V546c0-42 34-76 76-76z" fill="#f8c4af"/>
    <rect x="392" y="514" width="294" height="216" rx="18" fill="#fffaf6"/>
    <path d="M426 564h148M426 614h218M426 664h172" stroke="#173348" stroke-width="18" stroke-linecap="round" opacity=".86"/>
    <circle cx="636" cy="664" r="28" fill="#88a796"/>
  </g>
  <g>
    <ellipse cx="1175" cy="838" rx="215" ry="30" fill="#a55b3d" opacity=".16"/>
    <rect x="1148" y="590" width="70" height="252" rx="35" fill="#5f7f6f"/>
    <path d="M1164 616c-72-60-97-120-76-181 78 42 106 99 76 181z" fill="#88a796"/>
    <path d="M1194 640c52-84 112-122 180-116-13 94-73 133-180 116z" fill="#88a796"/>
    <path d="M1168 714c-92-8-144-47-157-116 87 0 139 38 157 116z" fill="#88a796"/>
  </g>
</svg>
